<svg width="120" height="120" viewBox="0 0 120 120" fill="none" xmlns="http://www.w3.org/2000/svg">
<g clip-path="url(#clip0_2471_6611)">
<path d="M0 0H120V120H0V0Z" fill="white"/>
<path d="M62.5748 53.3722C68.9497 52.9969 71.8197 57.7919 71.3518 63.564C70.9913 68.0113 68.0012 70.7685 63.6611 71.2228C55.2059 71.8228 52.2944 61.5205 57.1125 55.7306C58.5576 53.9941 60.3657 53.4685 62.5748 53.3722Z" fill="black"/>
<path d="M62.4489 56.989C66.7953 56.3646 67.8584 61.5635 66.8021 64.7221C66.2417 66.3974 65.7169 66.9328 64.0542 67.3609C63.0543 67.4926 61.6723 67.5929 60.8419 66.923C58.7402 65.2276 58.8428 60.2278 60.3209 58.1487C60.8895 57.3489 61.5354 57.1171 62.4489 56.989Z" fill="white"/>
<path d="M96.8786 53.3633C107.873 51.7741 109.705 69.337 99.2843 71.1044C99.1614 71.1194 99.0383 71.1337 98.9152 71.1471C96.5767 71.4012 94.5206 70.9294 92.5867 69.4559C88.8464 66.6064 88.6783 59.6411 91.4677 56.1268C92.7711 54.4846 94.7608 53.5687 96.8786 53.3633Z" fill="black"/>
<path d="M97.2574 56.9662C102.228 56.4209 102.617 62.8547 100.907 66.0859C100.449 66.9497 99.2529 67.3319 98.3144 67.4704C96.4765 67.5256 94.803 66.9767 94.2679 65.0423C93.3723 61.8038 93.5939 58.1637 97.2574 56.9662Z" fill="white"/>
<path d="M19.0926 53.442C20.2829 53.4355 21.3896 53.4259 22.5807 53.4957C23.8522 54.9034 25.0865 56.8219 26.1613 58.3915C27.4459 60.2678 28.6994 61.9799 29.7378 64.0057C29.8692 60.4704 29.8618 56.9811 29.928 53.4464L33.9779 53.4615L33.9835 70.783L33.9596 70.8587C33.6172 71.1507 30.9304 71.0055 30.303 70.9946C29.4104 69.034 24.6505 62.7306 23.2816 60.9948C23.4465 63.9459 23.3214 67.9724 23.3095 71.003C21.9052 71.0163 20.4695 70.9965 19.0625 70.9921L19.0926 53.442Z" fill="black"/>
<path d="M80.1997 53.3705C84.5159 52.9901 86.3455 54.7742 87.5198 58.7095C86.0473 58.7546 84.8209 58.7896 83.3502 58.7198C82.0451 56.3346 81.1652 56.6485 78.6968 57.0122C78.5693 57.3861 78.2007 58.4583 78.2223 58.7876C78.2561 59.661 80.5308 60.3264 81.4155 60.4507C86.0891 61.1076 89.8136 64.9757 86.0916 69.4014C84.8545 70.8723 82.3014 71.2262 80.2454 71.2152C75.7543 70.9308 74.1855 69.4645 73.207 65.1376C74.5023 65.1034 75.8733 65.0333 77.1571 65.1605C77.4169 65.7476 77.7277 66.3765 78.219 66.8032C79.0386 67.515 80.0502 67.7599 81.1202 67.684C81.7624 67.6384 82.4242 67.4511 82.8502 66.9378C83.1648 66.5587 83.3077 65.9988 83.2518 65.5125C83.0621 63.862 77.3932 63.7923 75.5544 62.2622C74.6148 61.4864 74.0378 60.3567 73.9598 59.1408C73.8627 57.7962 74.3748 56.2217 75.2853 55.2301C76.7139 53.6743 78.2715 53.4903 80.1997 53.3705Z" fill="black"/>
<path d="M43.8707 53.3627C46.435 53.0518 49.0819 53.7698 50.8202 55.7349C51.9838 57.0506 52.2686 58.1107 52.6696 59.7748C51.1375 59.85 49.915 59.858 48.3909 59.7181C48.3113 59.5358 48.2295 59.3544 48.1453 59.1741C46.5671 55.8048 42.2689 56.3663 41.2209 59.7786C40.0431 63.613 41.4839 69.2278 46.7685 67.0863C47.643 66.7319 48.1496 65.8017 48.4206 64.9276L48.6334 64.8288C50.0387 64.7971 51.2194 64.8621 52.6206 64.9401C52.3775 66.2427 51.8061 67.4618 50.9607 68.482C46.5805 73.8597 36.9488 71.0614 36.6562 63.7511C36.4429 58.4216 37.928 53.9159 43.8707 53.3627Z" fill="black"/>
<path d="M12.3066 53.4453C13.6167 53.5153 15.2858 53.47 16.6111 53.4571C16.4858 54.5942 16.5379 56.679 16.5373 57.8821L16.5343 65.8155C16.5322 67.3771 16.5669 69.4306 16.4319 70.9439C15.6895 71.0813 13.1335 70.9959 12.2773 70.9805C12.3928 65.2382 12.3111 59.2024 12.3066 53.4453Z" fill="black"/>
</g>
<defs>
<clipPath id="clip0_2471_6611">
<rect width="120" height="120" fill="white"/>
</clipPath>
</defs>
</svg>
